<?xml version="1.0" encoding="UTF-8" standalone="no"?>
<!-- Created with Inkscape (http://www.inkscape.org/) -->

<svg
   xmlns:dc="http://purl.org/dc/elements/1.1/"
   xmlns:cc="http://creativecommons.org/ns#"
   xmlns:rdf="http://www.w3.org/1999/02/22-rdf-syntax-ns#"
   xmlns:svg="http://www.w3.org/2000/svg"
   xmlns="http://www.w3.org/2000/svg"
   xmlns:xlink="http://www.w3.org/1999/xlink"
   xmlns:sodipodi="http://sodipodi.sourceforge.net/DTD/sodipodi-0.dtd"
   xmlns:inkscape="http://www.inkscape.org/namespaces/inkscape"
   width="210mm"
   height="297mm"
   viewBox="0 0 210 297"
   version="1.1"
   id="svg3233"
   inkscape:version="0.92.3 (2405546, 2018-03-11)"
   sodipodi:docname="op-based.svg">
  <defs
     id="defs3227">
    <clipPath
       clipPathUnits="userSpaceOnUse"
       id="clipPath2313">
      <path
         d="M 1433.67,2213.55 H 3527 v 760 H 1433.67 Z"
         id="path2311"
         inkscape:connector-curvature="0" />
    </clipPath>
    <mask
       maskUnits="userSpaceOnUse"
       x="0"
       y="0"
       width="1"
       height="1"
       id="mask2317">
      <image
         id="image2319"
         preserveAspectRatio="none"
         height="1"
         width="1"
         xlink:href="C:\Users\Server\Documents\techreport_img32.png" />
    </mask>
    <clipPath
       clipPathUnits="userSpaceOnUse"
       id="clipPath2291">
      <path
         d="M 1433.67,2213.55 H 3527 v 760 H 1433.67 Z"
         id="path2289"
         inkscape:connector-curvature="0" />
    </clipPath>
    <mask
       maskUnits="userSpaceOnUse"
       x="0"
       y="0"
       width="1"
       height="1"
       id="mask2295">
      <image
         id="image2297"
         preserveAspectRatio="none"
         height="1"
         width="1"
         xlink:href="C:\Users\Server\Documents\techreport_img30.png" />
    </mask>
    <clipPath
       clipPathUnits="userSpaceOnUse"
       id="clipPath2191">
      <path
         d="M 1433.67,2213.55 H 3527 v 760 H 1433.67 Z"
         id="path2189"
         inkscape:connector-curvature="0" />
    </clipPath>
    <mask
       maskUnits="userSpaceOnUse"
       x="0"
       y="0"
       width="1"
       height="1"
       id="mask2195">
      <image
         id="image2197"
         preserveAspectRatio="none"
         height="1"
         width="1"
         xlink:href="C:\Users\Server\Documents\techreport_img28.png" />
    </mask>
    <clipPath
       clipPathUnits="userSpaceOnUse"
       id="clipPath2169">
      <path
         d="M 1433.67,2213.55 H 3527 v 760 H 1433.67 Z"
         id="path2167"
         inkscape:connector-curvature="0" />
    </clipPath>
    <mask
       maskUnits="userSpaceOnUse"
       x="0"
       y="0"
       width="1"
       height="1"
       id="mask2173">
      <image
         id="image2175"
         preserveAspectRatio="none"
         height="1"
         width="1"
         xlink:href="C:\Users\Server\Documents\techreport_img26.png" />
    </mask>
    <clipPath
       clipPathUnits="userSpaceOnUse"
       id="clipPath2147">
      <path
         d="M 1433.67,2213.55 H 3527 v 760 H 1433.67 Z"
         id="path2145"
         inkscape:connector-curvature="0" />
    </clipPath>
    <mask
       maskUnits="userSpaceOnUse"
       x="0"
       y="0"
       width="1"
       height="1"
       id="mask2151">
      <image
         id="image2153"
         preserveAspectRatio="none"
         height="1"
         width="1"
         xlink:href="C:\Users\Server\Documents\techreport_img24.png" />
    </mask>
    <clipPath
       clipPathUnits="userSpaceOnUse"
       id="clipPath2111">
      <path
         d="M 1433.67,2213.55 H 3527 v 760 H 1433.67 Z"
         id="path2109"
         inkscape:connector-curvature="0" />
    </clipPath>
    <mask
       maskUnits="userSpaceOnUse"
       x="0"
       y="0"
       width="1"
       height="1"
       id="mask2115">
      <image
         id="image2117"
         preserveAspectRatio="none"
         height="1"
         width="1"
         xlink:href="C:\Users\Server\Documents\techreport_img22.png" />
    </mask>
    <clipPath
       clipPathUnits="userSpaceOnUse"
       id="clipPath2089">
      <path
         d="M 1433.67,2213.55 H 3527 v 760 H 1433.67 Z"
         id="path2087"
         inkscape:connector-curvature="0" />
    </clipPath>
    <mask
       maskUnits="userSpaceOnUse"
       x="0"
       y="0"
       width="1"
       height="1"
       id="mask2093">
      <image
         id="image2095"
         preserveAspectRatio="none"
         height="1"
         width="1"
         xlink:href="C:\Users\Server\Documents\techreport_img20.png" />
    </mask>
    <clipPath
       clipPathUnits="userSpaceOnUse"
       id="clipPath2067">
      <path
         d="M 1433.67,2213.55 H 3527 v 760 H 1433.67 Z"
         id="path2065"
         inkscape:connector-curvature="0" />
    </clipPath>
    <mask
       maskUnits="userSpaceOnUse"
       x="0"
       y="0"
       width="1"
       height="1"
       id="mask2071">
      <image
         id="image2073"
         preserveAspectRatio="none"
         height="1"
         width="1"
         xlink:href="C:\Users\Server\Documents\techreport_img18.png" />
    </mask>
    <clipPath
       clipPathUnits="userSpaceOnUse"
       id="clipPath2045">
      <path
         d="M 1433.67,2213.55 H 3527 v 760 H 1433.67 Z"
         id="path2043"
         inkscape:connector-curvature="0" />
    </clipPath>
    <mask
       maskUnits="userSpaceOnUse"
       x="0"
       y="0"
       width="1"
       height="1"
       id="mask2049">
      <image
         id="image2051"
         preserveAspectRatio="none"
         height="1"
         width="1"
         xlink:href="C:\Users\Server\Documents\techreport_img16.png" />
    </mask>
    <clipPath
       clipPathUnits="userSpaceOnUse"
       id="clipPath2023">
      <path
         d="M 1433.67,2213.55 H 3527 v 760 H 1433.67 Z"
         id="path2021"
         inkscape:connector-curvature="0" />
    </clipPath>
    <mask
       maskUnits="userSpaceOnUse"
       x="0"
       y="0"
       width="1"
       height="1"
       id="mask2027">
      <image
         id="image2029"
         preserveAspectRatio="none"
         height="1"
         width="1"
         xlink:href="C:\Users\Server\Documents\techreport_img14.png" />
    </mask>
    <clipPath
       clipPathUnits="userSpaceOnUse"
       id="clipPath2001">
      <path
         d="M 1433.67,2213.55 H 3527 v 760 H 1433.67 Z"
         id="path1999"
         inkscape:connector-curvature="0" />
    </clipPath>
    <mask
       maskUnits="userSpaceOnUse"
       x="0"
       y="0"
       width="1"
       height="1"
       id="mask2005">
      <image
         id="image2007"
         preserveAspectRatio="none"
         height="1"
         width="1"
         xlink:href="C:\Users\Server\Documents\techreport_img12.png" />
    </mask>
    <clipPath
       clipPathUnits="userSpaceOnUse"
       id="clipPath1961">
      <path
         d="M 1433.67,2213.55 H 3527 v 760 H 1433.67 Z"
         id="path1959"
         inkscape:connector-curvature="0" />
    </clipPath>
    <mask
       maskUnits="userSpaceOnUse"
       x="0"
       y="0"
       width="1"
       height="1"
       id="mask1965">
      <image
         id="image1967"
         preserveAspectRatio="none"
         height="1"
         width="1"
         xlink:href="C:\Users\Server\Documents\techreport_img10.png" />
    </mask>
    <clipPath
       clipPathUnits="userSpaceOnUse"
       id="clipPath1939">
      <path
         d="M 1433.67,2213.55 H 3527 v 760 H 1433.67 Z"
         id="path1937"
         inkscape:connector-curvature="0" />
    </clipPath>
    <mask
       maskUnits="userSpaceOnUse"
       x="0"
       y="0"
       width="1"
       height="1"
       id="mask1943">
      <image
         id="image1945"
         preserveAspectRatio="none"
         height="1"
         width="1"
         xlink:href="C:\Users\Server\Documents\techreport_img8.png" />
    </mask>
    <clipPath
       clipPathUnits="userSpaceOnUse"
       id="clipPath1917">
      <path
         d="M 1433.67,2213.55 H 3527 v 760 H 1433.67 Z"
         id="path1915"
         inkscape:connector-curvature="0" />
    </clipPath>
    <mask
       maskUnits="userSpaceOnUse"
       x="0"
       y="0"
       width="1"
       height="1"
       id="mask1921">
      <image
         id="image1923"
         preserveAspectRatio="none"
         height="1"
         width="1"
         xlink:href="C:\Users\Server\Documents\techreport_img6.png" />
    </mask>
    <clipPath
       clipPathUnits="userSpaceOnUse"
       id="clipPath1891">
      <path
         d="M 1433.67,2213.55 H 3527 v 760 H 1433.67 Z"
         id="path1889"
         inkscape:connector-curvature="0" />
    </clipPath>
    <mask
       maskUnits="userSpaceOnUse"
       x="0"
       y="0"
       width="1"
       height="1"
       id="mask1895">
      <image
         id="image1897"
         preserveAspectRatio="none"
         height="1"
         width="1"
         xlink:href="C:\Users\Server\Documents\techreport_img4.png" />
    </mask>
    <clipPath
       clipPathUnits="userSpaceOnUse"
       id="clipPath1869">
      <path
         d="M 1433.67,2213.55 H 3527 v 760 H 1433.67 Z"
         id="path1867"
         inkscape:connector-curvature="0" />
    </clipPath>
    <mask
       maskUnits="userSpaceOnUse"
       x="0"
       y="0"
       width="1"
       height="1"
       id="mask1873">
      <image
         id="image1875"
         preserveAspectRatio="none"
         height="1"
         width="1"
         xlink:href="C:\Users\Server\Documents\techreport_img2.png" />
    </mask>
    <clipPath
       clipPathUnits="userSpaceOnUse"
       id="clipPath1847">
      <path
         d="M 1433.67,2213.55 H 3527 v 760 H 1433.67 Z"
         id="path1845"
         inkscape:connector-curvature="0" />
    </clipPath>
    <mask
       maskUnits="userSpaceOnUse"
       x="0"
       y="0"
       width="1"
       height="1"
       id="mask1851">
      <image
         id="image1853"
         preserveAspectRatio="none"
         height="1"
         width="1"
         xlink:href="C:\Users\Server\Documents\techreport_img0.png" />
    </mask>
    <clipPath
       clipPathUnits="userSpaceOnUse"
       id="clipPath1833">
      <path
         d="M 1433.67,2213.55 H 3527 v 760 H 1433.67 Z"
         id="path1831"
         inkscape:connector-curvature="0" />
    </clipPath>
  </defs>
  <sodipodi:namedview
     id="base"
     pagecolor="#ffffff"
     bordercolor="#666666"
     borderopacity="1.0"
     inkscape:pageopacity="0.0"
     inkscape:pageshadow="2"
     inkscape:zoom="2.8284271"
     inkscape:cx="334.76564"
     inkscape:cy="839.44982"
     inkscape:document-units="mm"
     inkscape:current-layer="g2019"
     showgrid="false"
     inkscape:window-width="1920"
     inkscape:window-height="1017"
     inkscape:window-x="-8"
     inkscape:window-y="-8"
     inkscape:window-maximized="1" />
  <metadata
     id="metadata3230">
    <rdf:RDF>
      <cc:Work
         rdf:about="">
        <dc:format>image/svg+xml</dc:format>
        <dc:type
           rdf:resource="http://purl.org/dc/dcmitype/StillImage" />
        <dc:title />
      </cc:Work>
    </rdf:RDF>
  </metadata>
  <g
     inkscape:label="Layer 1"
     inkscape:groupmode="layer"
     id="layer1">
    <g
       transform="matrix(0.04233333,0,0,-0.04233333,-21.846078,186.05551)"
       id="g1827">
      <g
         id="g1829"
         clip-path="url(#clipPath1833)">
        <path
           d="M 1433.67,2213.55 H 3527 v 760 H 1433.67 Z"
           style="fill:#000000;fill-opacity:0;fill-rule:nonzero;stroke:none"
           id="path1835"
           inkscape:connector-curvature="0" />
        <path
           d="m 1906.91,2783.18 1585.82,-0.15 h 5"
           style="fill:none;stroke:#0433ff;stroke-width:10;stroke-linecap:butt;stroke-linejoin:round;stroke-miterlimit:8;stroke-dasharray:none;stroke-opacity:1"
           id="path1837"
           inkscape:connector-curvature="0" />
        <path
           d="m 3517.02,2783.03 -45.81,26.67 v 0 c -2.92,1.7 -6.66,0.71 -8.36,-2.2 -1.7,-2.92 -0.71,-6.66 2.21,-8.36 v 0 l 27.67,-16.11 -27.68,-16.1 v 0 c -2.91,-1.7 -3.9,-5.44 -2.2,-8.36 1.69,-2.92 5.44,-3.91 8.35,-2.21 z"
           style="fill:#0433ff;fill-opacity:1;fill-rule:nonzero;stroke:none"
           id="path1839"
           inkscape:connector-curvature="0" />
      </g>
    </g>
    <g
       transform="matrix(0.04233333,0,0,-0.04233333,-21.846078,186.05551)"
       id="g1841">
      <g
         id="g1843"
         clip-path="url(#clipPath1847)">
        <g
           id="g1849"
           transform="matrix(86.6667,0,0,83.3333,2167,2823.55)" />
        <g
           id="g1857"
           transform="scale(8.33333)">
          <text
             transform="matrix(1,0,0,-1,259.891,342.401)"
             style="font-style:italic;font-variant:normal;font-size:9.60000038px;font-family:'Gill Sans MT';-inkscape-font-specification:GillSans-Italic;writing-mode:lr-tb;fill:#0433ff;fill-opacity:1;fill-rule:nonzero;stroke:none"
             id="text1861">
            <tspan
               x="0 2.6015999 5.4047999"
               y="0"
               sodipodi:role="line"
               id="tspan1859">f(x</tspan>
          </text>
        </g>
      </g>
    </g>
    <g
       transform="matrix(0.04233333,0,0,-0.04233333,-21.846078,186.05551)"
       id="g1863">
      <g
         id="g1865"
         clip-path="url(#clipPath1869)">
        <g
           id="g1871"
           transform="matrix(20,0,0,46.6667,2253.67,2840.22)" />
        <g
           id="g1879"
           transform="scale(8.33333)">
          <text
             transform="matrix(1,0,0,-1,269.393,341.665)"
             style="font-style:italic;font-variant:normal;font-size:6.4000001px;font-family:'Gill Sans MT';-inkscape-font-specification:GillSans-Italic;writing-mode:lr-tb;fill:#0433ff;fill-opacity:1;fill-rule:nonzero;stroke:none"
             id="text1883">
            <tspan
               x="0"
               y="0"
               id="tspan1881">1</tspan>
          </text>
        </g>
      </g>
    </g>
    <g
       transform="matrix(0.04233333,0,0,-0.04233333,-21.846078,186.05551)"
       id="g1885">
      <g
         id="g1887"
         clip-path="url(#clipPath1891)">
        <g
           id="g1901"
           transform="scale(8.33333)">
          <text
             transform="matrix(1,0,0,-1,272.728,342.401)"
             style="font-style:italic;font-variant:normal;font-size:9.60000038px;font-family:'Gill Sans MT';-inkscape-font-specification:GillSans-Italic;writing-mode:lr-tb;fill:#0433ff;fill-opacity:1;fill-rule:nonzero;stroke:none"
             id="text1905">
            <tspan
               x="0"
               y="0"
               id="tspan1903">)</tspan>
          </text>
        </g>
        <path
           d="m 1906.91,2579.92 1585.82,-0.15 h 5"
           style="fill:none;stroke:#aa7942;stroke-width:10;stroke-linecap:butt;stroke-linejoin:round;stroke-miterlimit:8;stroke-dasharray:none;stroke-opacity:1"
           id="path1907"
           inkscape:connector-curvature="0" />
        <path
           d="m 3517.02,2579.77 -45.81,26.68 v 0 c -2.92,1.69 -6.66,0.71 -8.36,-2.21 -1.7,-2.92 -0.71,-6.66 2.21,-8.36 v 0 l 27.67,-16.11 -27.68,-16.1 v 0 c -2.91,-1.7 -3.9,-5.44 -2.2,-8.36 1.7,-2.92 5.44,-3.9 8.35,-2.2 z"
           style="fill:#aa7942;fill-opacity:1;fill-rule:nonzero;stroke:none"
           id="path1909"
           inkscape:connector-curvature="0" />
      </g>
    </g>
    <g
       transform="matrix(0.04233333,0,0,-0.04233333,-21.846078,186.05551)"
       id="g1911">
      <g
         id="g1913"
         clip-path="url(#clipPath1917)">
        <g
           id="g1919"
           transform="matrix(103.333,0,0,83.3333,2130.33,2633.55)" />
        <g
           id="g1927"
           transform="scale(8.33333)">
          <text
             transform="matrix(1,0,0,-1,256.117,319.592)"
             style="font-style:italic;font-variant:normal;font-size:9.60000038px;font-family:'Gill Sans MT';-inkscape-font-specification:GillSans-Italic;writing-mode:lr-tb;fill:#aa7942;fill-opacity:1;fill-rule:nonzero;stroke:none"
             id="text1931">
            <tspan
               x="0 4.099669 6.9028687"
               y="0"
               sodipodi:role="line"
               id="tspan1929">g(x</tspan>
          </text>
        </g>
      </g>
    </g>
    <g
       transform="matrix(0.04233333,0,0,-0.04233333,-21.846078,186.05551)"
       id="g1933">
      <g
         id="g1935"
         clip-path="url(#clipPath1939)">
        <g
           id="g1941"
           transform="matrix(33.3333,0,0,46.6667,2223.67,2650.22)" />
        <g
           id="g1949"
           transform="scale(8.33333)">
          <text
             transform="matrix(1,0,0,-1,267.114,318.856)"
             style="font-style:italic;font-variant:normal;font-size:6.4000001px;font-family:'Gill Sans MT';-inkscape-font-specification:GillSans-Italic;writing-mode:lr-tb;fill:#aa7942;fill-opacity:1;fill-rule:nonzero;stroke:none"
             id="text1953">
            <tspan
               x="0"
               y="0"
               id="tspan1951">2</tspan>
          </text>
        </g>
      </g>
    </g>
    <g
       transform="matrix(0.04233333,0,0,-0.04233333,-21.846078,186.05551)"
       id="g1955">
      <g
         id="g1957"
         clip-path="url(#clipPath1961)">
        <g
           id="g1963"
           transform="matrix(33.3333,0,0,83.3333,2247,2633.55)" />
        <g
           id="g1971"
           transform="scale(8.33333)">
          <text
             transform="matrix(1,0,0,-1,270.449,319.592)"
             style="font-style:italic;font-variant:normal;font-size:9.60000038px;font-family:'Gill Sans MT';-inkscape-font-specification:GillSans-Italic;writing-mode:lr-tb;fill:#aa7942;fill-opacity:1;fill-rule:nonzero;stroke:none"
             id="text1975">
            <tspan
               x="0"
               y="0"
               id="tspan1973">)</tspan>
          </text>
        </g>
        <path
           d="m 1906.88,2339.92 1585.88,-0.15 h 5"
           style="fill:none;stroke:#ff9200;stroke-width:10;stroke-linecap:butt;stroke-linejoin:round;stroke-miterlimit:8;stroke-dasharray:none;stroke-opacity:1"
           id="path1977"
           inkscape:connector-curvature="0" />
        <path
           d="m 3517.05,2339.77 -45.81,26.68 v 0 c -2.92,1.69 -6.66,0.71 -8.36,-2.21 -1.7,-2.92 -0.71,-6.66 2.21,-8.36 v 0 l 27.67,-16.11 -27.67,-16.1 v 0 c -2.92,-1.7 -3.91,-5.44 -2.21,-8.36 1.69,-2.92 5.44,-3.9 8.35,-2.2 z"
           style="fill:#ff9200;fill-opacity:1;fill-rule:nonzero;stroke:none"
           id="path1979"
           inkscape:connector-curvature="0" />
        <path
           d="m 2242.98,2762.98 c 224.27,-126.93 448.55,-253.85 672.82,-380.78 l 4.38,-2.48"
           style="fill:none;stroke:#797979;stroke-width:10;stroke-linecap:butt;stroke-linejoin:round;stroke-miterlimit:8;stroke-dasharray:none;stroke-opacity:1"
           id="path1981"
           inkscape:connector-curvature="0" />
        <path
           d="m 2904.99,2363.04 49.13,-2.52 -27.46,40.81 z"
           style="fill:#797979;fill-opacity:1;fill-rule:nonzero;stroke:none"
           id="path1983"
           inkscape:connector-curvature="0" />
        <path
           d="m 3015.91,2366.14 c 14.32,-14.32 14.32,-37.53 0,-51.85 -14.32,-14.32 -37.54,-14.32 -51.86,0 -14.32,14.32 -14.32,37.53 0,51.85 14.32,14.32 37.54,14.32 51.86,0"
           style="fill:#797979;fill-opacity:1;fill-rule:nonzero;stroke:none"
           id="path1985"
           inkscape:connector-curvature="0" />
        <path
           d="m 3015.91,2366.14 c 14.32,-14.32 14.32,-37.53 0,-51.85 -14.32,-14.32 -37.54,-14.32 -51.86,0 -14.32,14.32 -14.32,37.53 0,51.85 14.32,14.32 37.54,14.32 51.86,0"
           style="fill:none;stroke:#ffffff;stroke-width:10;stroke-linecap:butt;stroke-linejoin:round;stroke-miterlimit:8;stroke-dasharray:none;stroke-opacity:1"
           id="path1987"
           inkscape:connector-curvature="0" />
        <g
           id="g1989"
           transform="scale(8.33333)">
          <text
             transform="matrix(1,0,0,-1,357.154,279.626)"
             style="font-variant:normal;font-weight:bold;font-size:4px;font-family:'Gill Sans MT';-inkscape-font-specification:GillSans-Bold;writing-mode:lr-tb;fill:#ffffff;fill-opacity:1;fill-rule:nonzero;stroke:none"
             id="text1993">
            <tspan
               x="0"
               y="0"
               id="tspan1991">D</tspan>
          </text>
        </g>
      </g>
    </g>
    <g
       transform="matrix(0.04233333,0,0,-0.04233333,-21.846078,186.05551)"
       id="g1995">
      <g
         id="g1997"
         clip-path="url(#clipPath2001)">
        <g
           id="g2011"
           transform="scale(8.33333)">
          <text
             transform="matrix(1,0,0,-1,353.22,289.974)"
             style="font-style:italic;font-variant:normal;font-size:9.60000038px;font-family:'Gill Sans MT';-inkscape-font-specification:GillSans-Italic;writing-mode:lr-tb;fill:#797979;fill-opacity:1;fill-rule:nonzero;stroke:none"
             id="text2015">
            <tspan
               x="0 2.6015999 5.4047999"
               y="0"
               sodipodi:role="line"
               id="tspan2013">f(x</tspan>
          </text>
        </g>
      </g>
    </g>
    <g
       transform="matrix(0.04233333,0,0,-0.04233333,-21.846078,186.05551)"
       id="g2017">
      <g
         id="g2019"
         clip-path="url(#clipPath2023)">
        <g
           id="g2033"
           transform="scale(8.33333)">
          <text
             transform="matrix(1,0,0,-1,362.722,289.238)"
             style="font-style:italic;font-variant:normal;font-size:6.4000001px;font-family:'Gill Sans MT';-inkscape-font-specification:GillSans-Italic;writing-mode:lr-tb;fill:#797979;fill-opacity:1;fill-rule:nonzero;stroke:none"
             id="text2037">
            <tspan
               x="0"
               y="0"
               id="tspan2035">3</tspan>
          </text>
        </g>
      </g>
    </g>
    <g
       transform="matrix(0.04233333,0,0,-0.04233333,-21.846078,186.05551)"
       id="g2039">
      <g
         id="g2041"
         clip-path="url(#clipPath2045)">
        <g
           id="g2055"
           transform="scale(8.33333)">
          <text
             transform="matrix(1,0,0,-1,366.056,289.974)"
             style="font-style:italic;font-variant:normal;font-size:9.60000038px;font-family:'Gill Sans MT';-inkscape-font-specification:GillSans-Italic;writing-mode:lr-tb;fill:#797979;fill-opacity:1;fill-rule:nonzero;stroke:none"
             id="text2059">
            <tspan
               x="0"
               y="0"
               id="tspan2057">)</tspan>
          </text>
        </g>
      </g>
    </g>
    <g
       transform="matrix(0.04233333,0,0,-0.04233333,-21.846078,186.05551)"
       id="g2061">
      <g
         id="g2063"
         clip-path="url(#clipPath2067)">
        <g
           id="g2069"
           transform="matrix(103.333,0,0,83.3333,3010.33,2820.22)" />
        <g
           id="g2077"
           transform="scale(8.33333)">
          <text
             transform="matrix(1,0,0,-1,361.708,341.626)"
             style="font-style:italic;font-variant:normal;font-size:9.60000038px;font-family:'Gill Sans MT';-inkscape-font-specification:GillSans-Italic;writing-mode:lr-tb;fill:#797979;fill-opacity:1;fill-rule:nonzero;stroke:none"
             id="text2081">
            <tspan
               x="0 4.099669 6.9028687"
               y="0"
               sodipodi:role="line"
               id="tspan2079">g(x</tspan>
          </text>
        </g>
      </g>
    </g>
    <g
       transform="matrix(0.04233333,0,0,-0.04233333,-21.846078,186.05551)"
       id="g2083">
      <g
         id="g2085"
         clip-path="url(#clipPath2089)">
        <g
           id="g2099"
           transform="scale(8.33333)">
          <text
             transform="matrix(1,0,0,-1,372.705,340.89)"
             style="font-style:italic;font-variant:normal;font-size:6.4000001px;font-family:'Gill Sans MT';-inkscape-font-specification:GillSans-Italic;writing-mode:lr-tb;fill:#797979;fill-opacity:1;fill-rule:nonzero;stroke:none"
             id="text2103">
            <tspan
               x="0"
               y="0"
               id="tspan2101">1</tspan>
          </text>
        </g>
      </g>
    </g>
    <g
       transform="matrix(0.04233333,0,0,-0.04233333,-21.846078,186.05551)"
       id="g2105">
      <g
         id="g2107"
         clip-path="url(#clipPath2111)">
        <g
           id="g2113"
           transform="matrix(33.3333,0,0,83.3333,3127,2820.22)" />
        <g
           id="g2121"
           transform="scale(8.33333)">
          <text
             transform="matrix(1,0,0,-1,376.04,341.626)"
             style="font-style:italic;font-variant:normal;font-size:9.60000038px;font-family:'Gill Sans MT';-inkscape-font-specification:GillSans-Italic;writing-mode:lr-tb;fill:#797979;fill-opacity:1;fill-rule:nonzero;stroke:none"
             id="text2125">
            <tspan
               x="0"
               y="0"
               id="tspan2123">)</tspan>
          </text>
        </g>
        <path
           d="m 2972.65,2765.16 -4.86,-1.18 C 2727.26,2706 2486.71,2648 2246.17,2590.01"
           style="fill:none;stroke:#797979;stroke-width:10;stroke-linecap:butt;stroke-linejoin:round;stroke-miterlimit:8;stroke-dasharray:none;stroke-opacity:1"
           id="path2127"
           inkscape:connector-curvature="0" />
        <path
           d="m 2972.95,2742.6 37.62,31.7 -47.94,11.07 z"
           style="fill:#797979;fill-opacity:1;fill-rule:nonzero;stroke:none"
           id="path2129"
           inkscape:connector-curvature="0" />
        <path
           d="m 3076.13,2809.78 c 14.32,-14.32 14.32,-37.53 0,-51.85 -14.32,-14.32 -37.53,-14.32 -51.85,0 -14.32,14.32 -14.32,37.53 0,51.85 14.32,14.32 37.53,14.32 51.85,0"
           style="fill:#797979;fill-opacity:1;fill-rule:nonzero;stroke:none"
           id="path2131"
           inkscape:connector-curvature="0" />
        <path
           d="m 3076.13,2809.78 c 14.32,-14.32 14.32,-37.53 0,-51.85 -14.32,-14.32 -37.53,-14.32 -51.85,0 -14.32,14.32 -14.32,37.53 0,51.85 14.32,14.32 37.53,14.32 51.85,0"
           style="fill:none;stroke:#ffffff;stroke-width:10;stroke-linecap:butt;stroke-linejoin:round;stroke-miterlimit:8;stroke-dasharray:none;stroke-opacity:1"
           id="path2133"
           inkscape:connector-curvature="0" />
        <g
           id="g2135"
           transform="scale(8.33333)">
          <text
             transform="matrix(1,0,0,-1,364.381,332.863)"
             style="font-variant:normal;font-weight:bold;font-size:4px;font-family:'Gill Sans MT';-inkscape-font-specification:GillSans-Bold;writing-mode:lr-tb;fill:#ffffff;fill-opacity:1;fill-rule:nonzero;stroke:none"
             id="text2139">
            <tspan
               x="0"
               y="0"
               id="tspan2137">D</tspan>
          </text>
        </g>
      </g>
    </g>
    <g
       transform="matrix(0.04233333,0,0,-0.04233333,-21.846078,186.05551)"
       id="g2141">
      <g
         id="g2143"
         clip-path="url(#clipPath2147)">
        <g
           id="g2157"
           transform="scale(8.33333)">
          <text
             transform="matrix(1,0,0,-1,299.282,289.974)"
             style="font-style:italic;font-variant:normal;font-size:9.60000038px;font-family:'Gill Sans MT';-inkscape-font-specification:GillSans-Italic;writing-mode:lr-tb;fill:#797979;fill-opacity:1;fill-rule:nonzero;stroke:none"
             id="text2161">
            <tspan
               x="0 4.099669 6.9028687"
               y="0"
               sodipodi:role="line"
               id="tspan2159">g(x</tspan>
          </text>
        </g>
      </g>
    </g>
    <g
       transform="matrix(0.04233333,0,0,-0.04233333,-21.846078,186.05551)"
       id="g2163">
      <g
         id="g2165"
         clip-path="url(#clipPath2169)">
        <g
           id="g2171"
           transform="matrix(33.3333,0,0,50,2583.67,2400.22)" />
        <g
           id="g2179"
           transform="scale(8.33333)">
          <text
             transform="matrix(1,0,0,-1,310.279,289.238)"
             style="font-style:italic;font-variant:normal;font-size:6.4000001px;font-family:'Gill Sans MT';-inkscape-font-specification:GillSans-Italic;writing-mode:lr-tb;fill:#797979;fill-opacity:1;fill-rule:nonzero;stroke:none"
             id="text2183">
            <tspan
               x="0"
               y="0"
               id="tspan2181">3</tspan>
          </text>
        </g>
      </g>
    </g>
    <g
       transform="matrix(0.04233333,0,0,-0.04233333,-21.846078,186.05551)"
       id="g2185">
      <g
         id="g2187"
         clip-path="url(#clipPath2191)">
        <g
           id="g2201"
           transform="scale(8.33333)">
          <text
             transform="matrix(1,0,0,-1,313.613,289.974)"
             style="font-style:italic;font-variant:normal;font-size:9.60000038px;font-family:'Gill Sans MT';-inkscape-font-specification:GillSans-Italic;writing-mode:lr-tb;fill:#797979;fill-opacity:1;fill-rule:nonzero;stroke:none"
             id="text2205">
            <tspan
               x="0"
               y="0"
               id="tspan2203">)</tspan>
          </text>
        </g>
        <path
           d="m 2240.59,2557.93 c 85.15,-56.88 170.3,-113.75 255.45,-170.63 l 4.16,-2.78"
           style="fill:none;stroke:#797979;stroke-width:10;stroke-linecap:butt;stroke-linejoin:round;stroke-miterlimit:8;stroke-dasharray:none;stroke-opacity:1"
           id="path2207"
           inkscape:connector-curvature="0" />
        <path
           d="m 2483.82,2369.01 48.81,-6.15 -24.37,42.73 z"
           style="fill:#797979;fill-opacity:1;fill-rule:nonzero;stroke:none"
           id="path2209"
           inkscape:connector-curvature="0" />
        <path
           d="m 2592.46,2366.14 c 14.32,-14.32 14.32,-37.53 0,-51.85 -14.32,-14.32 -37.53,-14.32 -51.85,0 -14.32,14.32 -14.32,37.53 0,51.85 14.32,14.32 37.53,14.32 51.85,0"
           style="fill:#797979;fill-opacity:1;fill-rule:nonzero;stroke:none"
           id="path2211"
           inkscape:connector-curvature="0" />
        <path
           d="m 2592.46,2366.14 c 14.32,-14.32 14.32,-37.53 0,-51.85 -14.32,-14.32 -37.53,-14.32 -51.85,0 -14.32,14.32 -14.32,37.53 0,51.85 14.32,14.32 37.53,14.32 51.85,0"
           style="fill:none;stroke:#ffffff;stroke-width:10;stroke-linecap:butt;stroke-linejoin:round;stroke-miterlimit:8;stroke-dasharray:none;stroke-opacity:1"
           id="path2213"
           inkscape:connector-curvature="0" />
        <g
           id="g2215"
           transform="scale(8.33333)">
          <text
             transform="matrix(1,0,0,-1,306.34,279.626)"
             style="font-variant:normal;font-weight:bold;font-size:4px;font-family:'Gill Sans MT';-inkscape-font-specification:GillSans-Bold;writing-mode:lr-tb;fill:#ffffff;fill-opacity:1;fill-rule:nonzero;stroke:none"
             id="text2219">
            <tspan
               x="0"
               y="0"
               id="tspan2217">D</tspan>
          </text>
        </g>
        <path
           d="m 2232.7,2606.44 c 14.32,-14.32 14.32,-37.53 0,-51.85 -14.31,-14.32 -37.53,-14.32 -51.85,0 -14.32,14.32 -14.32,37.53 0,51.85 14.32,14.32 37.54,14.32 51.85,0"
           style="fill:#aa7942;fill-opacity:1;fill-rule:nonzero;stroke:none"
           id="path2221"
           inkscape:connector-curvature="0" />
        <path
           d="m 2232.7,2606.44 c 14.32,-14.32 14.32,-37.53 0,-51.85 -14.31,-14.32 -37.53,-14.32 -51.85,0 -14.32,14.32 -14.32,37.53 0,51.85 14.32,14.32 37.54,14.32 51.85,0"
           style="fill:none;stroke:#ffffff;stroke-width:10;stroke-linecap:butt;stroke-linejoin:round;stroke-miterlimit:8;stroke-dasharray:none;stroke-opacity:1"
           id="path2223"
           inkscape:connector-curvature="0" />
        <g
           id="g2225"
           transform="scale(8.33333)">
          <text
             transform="matrix(1,0,0,-1,263.59,308.461)"
             style="font-variant:normal;font-weight:bold;font-size:4px;font-family:'Gill Sans MT';-inkscape-font-specification:GillSans-Bold;writing-mode:lr-tb;fill:#ffffff;fill-opacity:1;fill-rule:nonzero;stroke:none"
             id="text2229">
            <tspan
               x="0"
               y="0"
               id="tspan2227">S</tspan>
          </text>
        </g>
        <path
           d="m 2247.1,2775.65 c 311.13,-59.84 622.25,-119.67 933.37,-179.5 l 4.9,-0.94"
           style="fill:none;stroke:#797979;stroke-width:10;stroke-linecap:butt;stroke-linejoin:round;stroke-miterlimit:8;stroke-dasharray:none;stroke-opacity:1"
           id="path2231"
           inkscape:connector-curvature="0" />
        <path
           d="m 3176.31,2574.55 47.36,13.29 -39.05,29.91 z"
           style="fill:#797979;fill-opacity:1;fill-rule:nonzero;stroke:none"
           id="path2233"
           inkscape:connector-curvature="0" />
        <path
           d="m 2232.89,2809.29 c 14.32,-14.32 14.32,-37.53 0,-51.85 -14.32,-14.32 -37.54,-14.32 -51.85,0 -14.33,14.32 -14.33,37.53 0,51.85 14.31,14.32 37.53,14.32 51.85,0"
           style="fill:#0433ff;fill-opacity:1;fill-rule:nonzero;stroke:none"
           id="path2235"
           inkscape:connector-curvature="0" />
        <path
           d="m 2232.89,2809.29 c 14.32,-14.32 14.32,-37.53 0,-51.85 -14.32,-14.32 -37.54,-14.32 -51.85,0 -14.33,14.32 -14.33,37.53 0,51.85 14.31,14.32 37.53,14.32 51.85,0"
           style="fill:none;stroke:#ffffff;stroke-width:10;stroke-linecap:butt;stroke-linejoin:round;stroke-miterlimit:8;stroke-dasharray:none;stroke-opacity:1"
           id="path2237"
           inkscape:connector-curvature="0" />
        <g
           id="g2239"
           transform="scale(8.33333)">
          <text
             transform="matrix(1,0,0,-1,263.612,332.804)"
             style="font-variant:normal;font-weight:bold;font-size:4px;font-family:'Gill Sans MT';-inkscape-font-specification:GillSans-Bold;writing-mode:lr-tb;fill:#ffffff;fill-opacity:1;fill-rule:nonzero;stroke:none"
             id="text2243">
            <tspan
               x="0"
               y="0"
               id="tspan2241">S</tspan>
          </text>
        </g>
        <path
           d="m 3289.24,2606.14 c 14.32,-14.32 14.32,-37.53 0,-51.85 -14.32,-14.32 -37.54,-14.32 -51.86,0 -14.31,14.32 -14.31,37.53 0,51.85 14.32,14.32 37.54,14.32 51.86,0"
           style="fill:#797979;fill-opacity:1;fill-rule:nonzero;stroke:none"
           id="path2245"
           inkscape:connector-curvature="0" />
        <path
           d="m 3289.24,2606.14 c 14.32,-14.32 14.32,-37.53 0,-51.85 -14.32,-14.32 -37.54,-14.32 -51.86,0 -14.31,14.32 -14.31,37.53 0,51.85 14.32,14.32 37.54,14.32 51.86,0"
           style="fill:none;stroke:#ffffff;stroke-width:10;stroke-linecap:butt;stroke-linejoin:round;stroke-miterlimit:8;stroke-dasharray:none;stroke-opacity:1"
           id="path2247"
           inkscape:connector-curvature="0" />
        <g
           id="g2249"
           transform="scale(8.33333)">
          <text
             transform="matrix(1,0,0,-1,389.954,308.426)"
             style="font-variant:normal;font-weight:bold;font-size:4px;font-family:'Gill Sans MT';-inkscape-font-specification:GillSans-Bold;writing-mode:lr-tb;fill:#ffffff;fill-opacity:1;fill-rule:nonzero;stroke:none"
             id="text2253">
            <tspan
               x="0"
               y="0"
               id="tspan2251">D</tspan>
          </text>
        </g>
        <g
           id="g2255"
           transform="scale(8.33333)">
          <text
             transform="matrix(1,0,0,-1,384.021,317.974)"
             style="font-style:italic;font-variant:normal;font-size:9.60000038px;font-family:'Gill Sans MT';-inkscape-font-specification:GillSans-Italic;writing-mode:lr-tb;fill:#797979;fill-opacity:1;fill-rule:nonzero;stroke:none"
             id="text2259">
            <tspan
               x="0 2.6015999 5.4047999"
               y="0"
               sodipodi:role="line"
               id="tspan2257">f(x</tspan>
          </text>
          <text
             transform="matrix(1,0,0,-1,393.522,317.238)"
             style="font-style:italic;font-variant:normal;font-size:6.4000001px;font-family:'Gill Sans MT';-inkscape-font-specification:GillSans-Italic;writing-mode:lr-tb;fill:#797979;fill-opacity:1;fill-rule:nonzero;stroke:none"
             id="text2263">
            <tspan
               x="0"
               y="0"
               id="tspan2261">2</tspan>
          </text>
          <text
             transform="matrix(1,0,0,-1,396.856,317.974)"
             style="font-style:italic;font-variant:normal;font-size:9.60000038px;font-family:'Gill Sans MT';-inkscape-font-specification:GillSans-Italic;writing-mode:lr-tb;fill:#797979;fill-opacity:1;fill-rule:nonzero;stroke:none"
             id="text2267">
            <tspan
               x="0"
               y="0"
               id="tspan2265">)</tspan>
          </text>
        </g>
        <path
           d="m 1791.47,2784.14 c 65.15,-128.21 65.15,-336.08 0,-464.28 -65.14,-128.22 -170.76,-128.22 -235.91,0 -65.14,128.2 -65.14,336.07 0,464.28 65.15,128.2 170.77,128.2 235.91,0"
           style="fill:none;stroke:#000000;stroke-width:6.66666985;stroke-linecap:butt;stroke-linejoin:round;stroke-miterlimit:8;stroke-dasharray:60, 20;stroke-dashoffset:0;stroke-opacity:1"
           id="path2269"
           inkscape:connector-curvature="0" />
        <path
           d="m 1731.87,2397.01 c 33.21,-31.24 33.21,-81.9 0,-113.14 -33.21,-31.24 -87.05,-31.24 -120.26,0 -33.21,31.24 -33.21,81.9 0,113.14 33.21,31.24 87.05,31.24 120.26,0"
           style="fill:none;stroke:#ff9200;stroke-width:6.66666985;stroke-linecap:butt;stroke-linejoin:round;stroke-miterlimit:8;stroke-dasharray:none;stroke-opacity:1"
           id="path2271"
           inkscape:connector-curvature="0" />
        <g
           id="g2273"
           transform="scale(8.33333)">
          <text
             transform="matrix(1,0,0,-1,195.964,277.592)"
             style="font-style:italic;font-variant:normal;font-size:9.60000038px;font-family:'Gill Sans MT';-inkscape-font-specification:GillSans-Italic;writing-mode:lr-tb;fill:#ff9200;fill-opacity:1;fill-rule:nonzero;stroke:none"
             id="text2277">
            <tspan
               x="0"
               y="0"
               id="tspan2275">x</tspan>
          </text>
          <text
             transform="matrix(1,0,0,-1,200.061,276.856)"
             style="font-style:italic;font-variant:normal;font-size:6.4000001px;font-family:'Gill Sans MT';-inkscape-font-specification:GillSans-Italic;writing-mode:lr-tb;fill:#ff9200;fill-opacity:1;fill-rule:nonzero;stroke:none"
             id="text2281">
            <tspan
               x="0"
               y="0"
               id="tspan2279">3</tspan>
          </text>
        </g>
        <path
           d="m 1731.87,2823.68 c 33.21,-31.25 33.21,-81.9 0,-113.14 -33.21,-31.24 -87.05,-31.24 -120.26,0 -33.21,31.24 -33.21,81.89 0,113.14 33.21,31.24 87.05,31.24 120.26,0"
           style="fill:none;stroke:#0433ff;stroke-width:6.66666985;stroke-linecap:butt;stroke-linejoin:round;stroke-miterlimit:8;stroke-dasharray:none;stroke-opacity:1"
           id="path2283"
           inkscape:connector-curvature="0" />
      </g>
    </g>
    <g
       transform="matrix(0.04233333,0,0,-0.04233333,-21.846078,186.05551)"
       id="g2285">
      <g
         id="g2287"
         clip-path="url(#clipPath2291)">
        <g
           id="g2301"
           transform="scale(8.33333)">
          <text
             transform="matrix(1,0,0,-1,195.964,328.793)"
             style="font-style:italic;font-variant:normal;font-size:9.60000038px;font-family:'Gill Sans MT';-inkscape-font-specification:GillSans-Italic;writing-mode:lr-tb;fill:#003649;fill-opacity:1;fill-rule:nonzero;stroke:none"
             id="text2305">
            <tspan
               x="0"
               y="0"
               id="tspan2303">x</tspan>
          </text>
        </g>
      </g>
    </g>
    <g
       transform="matrix(0.04233333,0,0,-0.04233333,-21.846078,186.05551)"
       id="g2307">
      <g
         id="g2309"
         clip-path="url(#clipPath2313)">
        <g
           id="g2323"
           transform="scale(8.33333)">
          <text
             transform="matrix(1,0,0,-1,200.061,328.057)"
             style="font-style:italic;font-variant:normal;font-size:6.4000001px;font-family:'Gill Sans MT';-inkscape-font-specification:GillSans-Italic;writing-mode:lr-tb;fill:#003649;fill-opacity:1;fill-rule:nonzero;stroke:none"
             id="text2327">
            <tspan
               x="0"
               y="0"
               id="tspan2325">1</tspan>
          </text>
        </g>
        <path
           d="m 1731.87,2606.79 c 33.21,-31.25 33.21,-81.9 0,-113.14 -33.21,-31.24 -87.05,-31.24 -120.26,0 -33.21,31.24 -33.21,81.89 0,113.14 33.21,31.24 87.05,31.24 120.26,0"
           style="fill:none;stroke:#aa7942;stroke-width:6.66666985;stroke-linecap:butt;stroke-linejoin:round;stroke-miterlimit:8;stroke-dasharray:none;stroke-opacity:1"
           id="path2329"
           inkscape:connector-curvature="0" />
        <g
           id="g2331"
           transform="scale(8.33333)">
          <text
             transform="matrix(1,0,0,-1,195.964,302.538)"
             style="font-style:italic;font-variant:normal;font-size:9.60000038px;font-family:'Gill Sans MT';-inkscape-font-specification:GillSans-Italic;writing-mode:lr-tb;fill:#aa7942;fill-opacity:1;fill-rule:nonzero;stroke:none"
             id="text2335">
            <tspan
               x="0"
               y="0"
               id="tspan2333">x</tspan>
          </text>
        </g>
        <g
           id="g2337"
           transform="scale(8.33333)">
          <text
             transform="matrix(1,0,0,-1,200.061,301.802)"
             style="font-style:italic;font-variant:normal;font-size:6.4000001px;font-family:'Gill Sans MT';-inkscape-font-specification:GillSans-Italic;writing-mode:lr-tb;fill:#aa7942;fill-opacity:1;fill-rule:nonzero;stroke:none"
             id="text2341">
            <tspan
               x="0"
               y="0"
               id="tspan2339">2</tspan>
          </text>
        </g>
        <g
           id="g2343"
           transform="scale(8.33333)">
          <text
             transform="matrix(1,0,0,-1,177.639,338.392)"
             style="font-style:italic;font-variant:normal;font-size:9.60000038px;font-family:'Gill Sans MT';-inkscape-font-specification:GillSans-Italic;writing-mode:lr-tb;fill:#000000;fill-opacity:1;fill-rule:nonzero;stroke:none"
             id="text2347">
            <tspan
               x="0"
               y="0"
               id="tspan2345">x</tspan>
          </text>
        </g>
      </g>
    </g>
  </g>
</svg>
