<?xml version="1.0" encoding="UTF-8" standalone="no"?>
<!-- Created with Inkscape (http://www.inkscape.org/) -->

<svg
   xmlns:dc="http://purl.org/dc/elements/1.1/"
   xmlns:cc="http://creativecommons.org/ns#"
   xmlns:rdf="http://www.w3.org/1999/02/22-rdf-syntax-ns#"
   xmlns:svg="http://www.w3.org/2000/svg"
   xmlns="http://www.w3.org/2000/svg"
   xmlns:xlink="http://www.w3.org/1999/xlink"
   xmlns:sodipodi="http://sodipodi.sourceforge.net/DTD/sodipodi-0.dtd"
   xmlns:inkscape="http://www.inkscape.org/namespaces/inkscape"
   version="1.1"
   id="svg4518"
   xml:space="preserve"
   width="793.70667"
   height="1122.52"
   viewBox="0 0 793.70667 1122.52"
   sodipodi:docname="state-based.svg"
   inkscape:version="0.92.3 (2405546, 2018-03-11)"><metadata
     id="metadata4524"><rdf:RDF><cc:Work
         rdf:about=""><dc:format>image/svg+xml</dc:format><dc:type
           rdf:resource="http://purl.org/dc/dcmitype/StillImage" /><dc:title /></cc:Work></rdf:RDF></metadata><defs
     id="defs4522"><clipPath
       clipPathUnits="userSpaceOnUse"
       id="clipPath4760"><path
         d="m 1400.33,3032.27 h 2160 v 876.66 h -2160 z"
         id="path4758"
         inkscape:connector-curvature="0" /></clipPath><clipPath
       clipPathUnits="userSpaceOnUse"
       id="clipPath4796"><path
         d="m 1400.33,3032.27 h 2160 v 876.66 h -2160 z"
         id="path4794"
         inkscape:connector-curvature="0" /></clipPath><mask
       maskUnits="userSpaceOnUse"
       x="0"
       y="0"
       width="1"
       height="1"
       id="mask4800"><image
         width="1"
         height="1"
         preserveAspectRatio="none"
         xlink:href="file:///C:/Users/Server/Documents/techreport_img0.png"
         id="image4802"
         sodipodi:absref="C:\Users\Server\Documents\techreport_img0.png" /></mask><clipPath
       clipPathUnits="userSpaceOnUse"
       id="clipPath4818"><path
         d="m 1400.33,3032.27 h 2160 v 876.66 h -2160 z"
         id="path4816"
         inkscape:connector-curvature="0" /></clipPath><mask
       maskUnits="userSpaceOnUse"
       x="0"
       y="0"
       width="1"
       height="1"
       id="mask4822"><image
         width="1"
         height="1"
         preserveAspectRatio="none"
         xlink:href="file:///C:/Users/Server/Documents/techreport_img2.png"
         id="image4824"
         sodipodi:absref="C:\Users\Server\Documents\techreport_img2.png" /></mask><clipPath
       clipPathUnits="userSpaceOnUse"
       id="clipPath4862"><path
         d="m 1400.33,3032.27 h 2160 v 876.66 h -2160 z"
         id="path4860"
         inkscape:connector-curvature="0" /></clipPath><mask
       maskUnits="userSpaceOnUse"
       x="0"
       y="0"
       width="1"
       height="1"
       id="mask4866"><image
         width="1"
         height="1"
         preserveAspectRatio="none"
         xlink:href="file:///C:/Users/Server/Documents/techreport_img4.png"
         id="image4868"
         sodipodi:absref="C:\Users\Server\Documents\techreport_img4.png" /></mask><clipPath
       clipPathUnits="userSpaceOnUse"
       id="clipPath4884"><path
         d="m 1400.33,3032.27 h 2160 v 876.66 h -2160 z"
         id="path4882"
         inkscape:connector-curvature="0" /></clipPath><mask
       maskUnits="userSpaceOnUse"
       x="0"
       y="0"
       width="1"
       height="1"
       id="mask4888"><image
         width="1"
         height="1"
         preserveAspectRatio="none"
         xlink:href="file:///C:/Users/Server/Documents/techreport_img6.png"
         id="image4890"
         sodipodi:absref="C:\Users\Server\Documents\techreport_img6.png" /></mask><clipPath
       clipPathUnits="userSpaceOnUse"
       id="clipPath4906"><path
         d="m 1400.33,3032.27 h 2160 v 876.66 h -2160 z"
         id="path4904"
         inkscape:connector-curvature="0" /></clipPath><mask
       maskUnits="userSpaceOnUse"
       x="0"
       y="0"
       width="1"
       height="1"
       id="mask4910"><image
         width="1"
         height="1"
         preserveAspectRatio="none"
         xlink:href="file:///C:/Users/Server/Documents/techreport_img8.png"
         id="image4912"
         sodipodi:absref="C:\Users\Server\Documents\techreport_img8.png" /></mask><clipPath
       clipPathUnits="userSpaceOnUse"
       id="clipPath4982"><path
         d="m 1400.33,3032.27 h 2160 v 876.66 h -2160 z"
         id="path4980"
         inkscape:connector-curvature="0" /></clipPath><mask
       maskUnits="userSpaceOnUse"
       x="0"
       y="0"
       width="1"
       height="1"
       id="mask4986"><image
         width="1"
         height="1"
         preserveAspectRatio="none"
         xlink:href="file:///C:/Users/Server/Documents/techreport_img10.png"
         id="image4988"
         sodipodi:absref="C:\Users\Server\Documents\techreport_img10.png" /></mask><clipPath
       clipPathUnits="userSpaceOnUse"
       id="clipPath5004"><path
         d="m 1400.33,3032.27 h 2160 v 876.66 h -2160 z"
         id="path5002"
         inkscape:connector-curvature="0" /></clipPath><mask
       maskUnits="userSpaceOnUse"
       x="0"
       y="0"
       width="1"
       height="1"
       id="mask5008"><image
         width="1"
         height="1"
         preserveAspectRatio="none"
         xlink:href="file:///C:/Users/Server/Documents/techreport_img12.png"
         id="image5010"
         sodipodi:absref="C:\Users\Server\Documents\techreport_img12.png" /></mask><clipPath
       clipPathUnits="userSpaceOnUse"
       id="clipPath5046"><path
         d="m 1400.33,3032.27 h 2160 v 876.66 h -2160 z"
         id="path5044"
         inkscape:connector-curvature="0" /></clipPath><mask
       maskUnits="userSpaceOnUse"
       x="0"
       y="0"
       width="1"
       height="1"
       id="mask5050"><image
         width="1"
         height="1"
         preserveAspectRatio="none"
         xlink:href="file:///C:/Users/Server/Documents/techreport_img14.png"
         id="image5052"
         sodipodi:absref="C:\Users\Server\Documents\techreport_img14.png" /></mask><clipPath
       clipPathUnits="userSpaceOnUse"
       id="clipPath5092"><path
         d="M 826.773,1871.86 H 4220.11 v 953.33 H 826.773 Z"
         id="path5090"
         inkscape:connector-curvature="0" /></clipPath><clipPath
       clipPathUnits="userSpaceOnUse"
       id="clipPath5110"><path
         d="M 826.773,1871.86 H 4220.11 v 953.33 H 826.773 Z"
         id="path5108"
         inkscape:connector-curvature="0" /></clipPath><mask
       maskUnits="userSpaceOnUse"
       x="0"
       y="0"
       width="1"
       height="1"
       id="mask5114"><image
         width="1"
         height="1"
         preserveAspectRatio="none"
         xlink:href="file:///C:/Users/Server/Documents/techreport_img16.png"
         id="image5116"
         sodipodi:absref="C:\Users\Server\Documents\techreport_img16.png" /></mask><clipPath
       clipPathUnits="userSpaceOnUse"
       id="clipPath5140"><path
         d="M 826.773,1871.86 H 4220.11 v 953.33 H 826.773 Z"
         id="path5138"
         inkscape:connector-curvature="0" /></clipPath><mask
       maskUnits="userSpaceOnUse"
       x="0"
       y="0"
       width="1"
       height="1"
       id="mask5144"><image
         width="1"
         height="1"
         preserveAspectRatio="none"
         xlink:href="file:///C:/Users/Server/Documents/techreport_img18.png"
         id="image5146"
         sodipodi:absref="C:\Users\Server\Documents\techreport_img18.png" /></mask><clipPath
       clipPathUnits="userSpaceOnUse"
       id="clipPath5170"><path
         d="M 826.773,1871.86 H 4220.11 v 953.33 H 826.773 Z"
         id="path5168"
         inkscape:connector-curvature="0" /></clipPath><mask
       maskUnits="userSpaceOnUse"
       x="0"
       y="0"
       width="1"
       height="1"
       id="mask5174"><image
         width="1"
         height="1"
         preserveAspectRatio="none"
         xlink:href="file:///C:/Users/Server/Documents/techreport_img20.png"
         id="image5176"
         sodipodi:absref="C:\Users\Server\Documents\techreport_img20.png" /></mask><clipPath
       clipPathUnits="userSpaceOnUse"
       id="clipPath5200"><path
         d="M 826.773,1871.86 H 4220.11 v 953.33 H 826.773 Z"
         id="path5198"
         inkscape:connector-curvature="0" /></clipPath><mask
       maskUnits="userSpaceOnUse"
       x="0"
       y="0"
       width="1"
       height="1"
       id="mask5204"><image
         width="1"
         height="1"
         preserveAspectRatio="none"
         xlink:href="file:///C:/Users/Server/Documents/techreport_img22.png"
         id="image5206"
         sodipodi:absref="C:\Users\Server\Documents\techreport_img22.png" /></mask><clipPath
       clipPathUnits="userSpaceOnUse"
       id="clipPath5226"><path
         d="M 826.773,1871.86 H 4220.11 v 953.33 H 826.773 Z"
         id="path5224"
         inkscape:connector-curvature="0" /></clipPath><mask
       maskUnits="userSpaceOnUse"
       x="0"
       y="0"
       width="1"
       height="1"
       id="mask5230"><image
         width="1"
         height="1"
         preserveAspectRatio="none"
         xlink:href="file:///C:/Users/Server/Documents/techreport_img24.png"
         id="image5232"
         sodipodi:absref="C:\Users\Server\Documents\techreport_img24.png" /></mask><clipPath
       clipPathUnits="userSpaceOnUse"
       id="clipPath5252"><path
         d="M 826.773,1871.86 H 4220.11 v 953.33 H 826.773 Z"
         id="path5250"
         inkscape:connector-curvature="0" /></clipPath><mask
       maskUnits="userSpaceOnUse"
       x="0"
       y="0"
       width="1"
       height="1"
       id="mask5256"><image
         width="1"
         height="1"
         preserveAspectRatio="none"
         xlink:href="file:///C:/Users/Server/Documents/techreport_img26.png"
         id="image5258"
         sodipodi:absref="C:\Users\Server\Documents\techreport_img26.png" /></mask><clipPath
       clipPathUnits="userSpaceOnUse"
       id="clipPath5278"><path
         d="M 826.773,1871.86 H 4220.11 v 953.33 H 826.773 Z"
         id="path5276"
         inkscape:connector-curvature="0" /></clipPath><mask
       maskUnits="userSpaceOnUse"
       x="0"
       y="0"
       width="1"
       height="1"
       id="mask5282"><image
         width="1"
         height="1"
         preserveAspectRatio="none"
         xlink:href="file:///C:/Users/Server/Documents/techreport_img28.png"
         id="image5284"
         sodipodi:absref="C:\Users\Server\Documents\techreport_img28.png" /></mask><clipPath
       clipPathUnits="userSpaceOnUse"
       id="clipPath5304"><path
         d="M 826.773,1871.86 H 4220.11 v 953.33 H 826.773 Z"
         id="path5302"
         inkscape:connector-curvature="0" /></clipPath><mask
       maskUnits="userSpaceOnUse"
       x="0"
       y="0"
       width="1"
       height="1"
       id="mask5308"><image
         width="1"
         height="1"
         preserveAspectRatio="none"
         xlink:href="file:///C:/Users/Server/Documents/techreport_img30.png"
         id="image5310"
         sodipodi:absref="C:\Users\Server\Documents\techreport_img30.png" /></mask><clipPath
       clipPathUnits="userSpaceOnUse"
       id="clipPath5326"><path
         d="M 826.773,1871.86 H 4220.11 v 953.33 H 826.773 Z"
         id="path5324"
         inkscape:connector-curvature="0" /></clipPath><mask
       maskUnits="userSpaceOnUse"
       x="0"
       y="0"
       width="1"
       height="1"
       id="mask5330"><image
         width="1"
         height="1"
         preserveAspectRatio="none"
         xlink:href="file:///C:/Users/Server/Documents/techreport_img32.png"
         id="image5332"
         sodipodi:absref="C:\Users\Server\Documents\techreport_img32.png" /></mask><clipPath
       clipPathUnits="userSpaceOnUse"
       id="clipPath5374"><path
         d="M 826.773,1871.86 H 4220.11 v 953.33 H 826.773 Z"
         id="path5372"
         inkscape:connector-curvature="0" /></clipPath><mask
       maskUnits="userSpaceOnUse"
       x="0"
       y="0"
       width="1"
       height="1"
       id="mask5378"><image
         width="1"
         height="1"
         preserveAspectRatio="none"
         xlink:href="file:///C:/Users/Server/Documents/techreport_img34.png"
         id="image5380"
         sodipodi:absref="C:\Users\Server\Documents\techreport_img34.png" /></mask><clipPath
       clipPathUnits="userSpaceOnUse"
       id="clipPath5396"><path
         d="M 826.773,1871.86 H 4220.11 v 953.33 H 826.773 Z"
         id="path5394"
         inkscape:connector-curvature="0" /></clipPath><mask
       maskUnits="userSpaceOnUse"
       x="0"
       y="0"
       width="1"
       height="1"
       id="mask5400"><image
         width="1"
         height="1"
         preserveAspectRatio="none"
         xlink:href="file:///C:/Users/Server/Documents/techreport_img36.png"
         id="image5402"
         sodipodi:absref="C:\Users\Server\Documents\techreport_img36.png" /></mask><clipPath
       clipPathUnits="userSpaceOnUse"
       id="clipPath5440"><path
         d="M 826.773,1871.86 H 4220.11 v 953.33 H 826.773 Z"
         id="path5438"
         inkscape:connector-curvature="0" /></clipPath><mask
       maskUnits="userSpaceOnUse"
       x="0"
       y="0"
       width="1"
       height="1"
       id="mask5444"><image
         width="1"
         height="1"
         preserveAspectRatio="none"
         xlink:href="file:///C:/Users/Server/Documents/techreport_img38.png"
         id="image5446"
         sodipodi:absref="C:\Users\Server\Documents\techreport_img38.png" /></mask><clipPath
       clipPathUnits="userSpaceOnUse"
       id="clipPath5462"><path
         d="M 826.773,1871.86 H 4220.11 v 953.33 H 826.773 Z"
         id="path5460"
         inkscape:connector-curvature="0" /></clipPath><mask
       maskUnits="userSpaceOnUse"
       x="0"
       y="0"
       width="1"
       height="1"
       id="mask5466"><image
         width="1"
         height="1"
         preserveAspectRatio="none"
         xlink:href="file:///C:/Users/Server/Documents/techreport_img40.png"
         id="image5468"
         sodipodi:absref="C:\Users\Server\Documents\techreport_img40.png" /></mask><clipPath
       clipPathUnits="userSpaceOnUse"
       id="clipPath5484"><path
         d="M 826.773,1871.86 H 4220.11 v 953.33 H 826.773 Z"
         id="path5482"
         inkscape:connector-curvature="0" /></clipPath><mask
       maskUnits="userSpaceOnUse"
       x="0"
       y="0"
       width="1"
       height="1"
       id="mask5488"><image
         width="1"
         height="1"
         preserveAspectRatio="none"
         xlink:href="file:///C:/Users/Server/Documents/techreport_img42.png"
         id="image5490"
         sodipodi:absref="C:\Users\Server\Documents\techreport_img42.png" /></mask><clipPath
       clipPathUnits="userSpaceOnUse"
       id="clipPath5556"><path
         d="M 826.773,1871.86 H 4220.11 v 953.33 H 826.773 Z"
         id="path5554"
         inkscape:connector-curvature="0" /></clipPath><mask
       maskUnits="userSpaceOnUse"
       x="0"
       y="0"
       width="1"
       height="1"
       id="mask5560"><image
         width="1"
         height="1"
         preserveAspectRatio="none"
         xlink:href="file:///C:/Users/Server/Documents/techreport_img44.png"
         id="image5562"
         sodipodi:absref="C:\Users\Server\Documents\techreport_img44.png" /></mask><clipPath
       clipPathUnits="userSpaceOnUse"
       id="clipPath5578"><path
         d="M 826.773,1871.86 H 4220.11 v 953.33 H 826.773 Z"
         id="path5576"
         inkscape:connector-curvature="0" /></clipPath><mask
       maskUnits="userSpaceOnUse"
       x="0"
       y="0"
       width="1"
       height="1"
       id="mask5582"><image
         width="1"
         height="1"
         preserveAspectRatio="none"
         xlink:href="file:///C:/Users/Server/Documents/techreport_img46.png"
         id="image5584"
         sodipodi:absref="C:\Users\Server\Documents\techreport_img46.png" /></mask><clipPath
       clipPathUnits="userSpaceOnUse"
       id="clipPath5620"><path
         d="M 826.773,1871.86 H 4220.11 v 953.33 H 826.773 Z"
         id="path5618"
         inkscape:connector-curvature="0" /></clipPath><mask
       maskUnits="userSpaceOnUse"
       x="0"
       y="0"
       width="1"
       height="1"
       id="mask5624"><image
         width="1"
         height="1"
         preserveAspectRatio="none"
         xlink:href="file:///C:/Users/Server/Documents/techreport_img48.png"
         id="image5626"
         sodipodi:absref="C:\Users\Server\Documents\techreport_img48.png" /></mask><clipPath
       clipPathUnits="userSpaceOnUse"
       id="clipPath5662"><path
         d="M 826.773,1871.86 H 4220.11 v 953.33 H 826.773 Z"
         id="path5660"
         inkscape:connector-curvature="0" /></clipPath><mask
       maskUnits="userSpaceOnUse"
       x="0"
       y="0"
       width="1"
       height="1"
       id="mask5666"><image
         width="1"
         height="1"
         preserveAspectRatio="none"
         xlink:href="file:///C:/Users/Server/Documents/techreport_img50.png"
         id="image5668"
         sodipodi:absref="C:\Users\Server\Documents\techreport_img50.png" /></mask><clipPath
       clipPathUnits="userSpaceOnUse"
       id="clipPath5686"><path
         d="M 826.773,1871.86 H 4220.11 v 953.33 H 826.773 Z"
         id="path5684"
         inkscape:connector-curvature="0" /></clipPath><mask
       maskUnits="userSpaceOnUse"
       x="0"
       y="0"
       width="1"
       height="1"
       id="mask5690"><image
         width="1"
         height="1"
         preserveAspectRatio="none"
         xlink:href="file:///C:/Users/Server/Documents/techreport_img52.png"
         id="image5692"
         sodipodi:absref="C:\Users\Server\Documents\techreport_img52.png" /></mask><clipPath
       clipPathUnits="userSpaceOnUse"
       id="clipPath5710"><path
         d="M 826.773,1871.86 H 4220.11 v 953.33 H 826.773 Z"
         id="path5708"
         inkscape:connector-curvature="0" /></clipPath><mask
       maskUnits="userSpaceOnUse"
       x="0"
       y="0"
       width="1"
       height="1"
       id="mask5714"><image
         width="1"
         height="1"
         preserveAspectRatio="none"
         xlink:href="file:///C:/Users/Server/Documents/techreport_img54.png"
         id="image5716"
         sodipodi:absref="C:\Users\Server\Documents\techreport_img54.png" /></mask><clipPath
       clipPathUnits="userSpaceOnUse"
       id="clipPath5732"><path
         d="M 826.773,1871.86 H 4220.11 v 953.33 H 826.773 Z"
         id="path5730"
         inkscape:connector-curvature="0" /></clipPath><mask
       maskUnits="userSpaceOnUse"
       x="0"
       y="0"
       width="1"
       height="1"
       id="mask5736"><image
         width="1"
         height="1"
         preserveAspectRatio="none"
         xlink:href="file:///C:/Users/Server/Documents/techreport_img56.png"
         id="image5738"
         sodipodi:absref="C:\Users\Server\Documents\techreport_img56.png" /></mask><clipPath
       clipPathUnits="userSpaceOnUse"
       id="clipPath5754"><path
         d="M 826.773,1871.86 H 4220.11 v 953.33 H 826.773 Z"
         id="path5752"
         inkscape:connector-curvature="0" /></clipPath><mask
       maskUnits="userSpaceOnUse"
       x="0"
       y="0"
       width="1"
       height="1"
       id="mask5758"><image
         width="1"
         height="1"
         preserveAspectRatio="none"
         xlink:href="file:///C:/Users/Server/Documents/techreport_img58.png"
         id="image5760"
         sodipodi:absref="C:\Users\Server\Documents\techreport_img58.png" /></mask><clipPath
       clipPathUnits="userSpaceOnUse"
       id="clipPath5776"><path
         d="M 826.773,1871.86 H 4220.11 v 953.33 H 826.773 Z"
         id="path5774"
         inkscape:connector-curvature="0" /></clipPath><mask
       maskUnits="userSpaceOnUse"
       x="0"
       y="0"
       width="1"
       height="1"
       id="mask5780"><image
         width="1"
         height="1"
         preserveAspectRatio="none"
         xlink:href="file:///C:/Users/Server/Documents/techreport_img60.png"
         id="image5782"
         sodipodi:absref="C:\Users\Server\Documents\techreport_img60.png" /></mask><clipPath
       clipPathUnits="userSpaceOnUse"
       id="clipPath5798"><path
         d="M 826.773,1871.86 H 4220.11 v 953.33 H 826.773 Z"
         id="path5796"
         inkscape:connector-curvature="0" /></clipPath><mask
       maskUnits="userSpaceOnUse"
       x="0"
       y="0"
       width="1"
       height="1"
       id="mask5802"><image
         width="1"
         height="1"
         preserveAspectRatio="none"
         xlink:href="file:///C:/Users/Server/Documents/techreport_img62.png"
         id="image5804"
         sodipodi:absref="C:\Users\Server\Documents\techreport_img62.png" /></mask><clipPath
       clipPathUnits="userSpaceOnUse"
       id="clipPath5820"><path
         d="M 826.773,1871.86 H 4220.11 v 953.33 H 826.773 Z"
         id="path5818"
         inkscape:connector-curvature="0" /></clipPath><mask
       maskUnits="userSpaceOnUse"
       x="0"
       y="0"
       width="1"
       height="1"
       id="mask5824"><image
         width="1"
         height="1"
         preserveAspectRatio="none"
         xlink:href="file:///C:/Users/Server/Documents/techreport_img64.png"
         id="image5826"
         sodipodi:absref="C:\Users\Server\Documents\techreport_img64.png" /></mask></defs><sodipodi:namedview
     pagecolor="#ffffff"
     bordercolor="#666666"
     borderopacity="1"
     objecttolerance="10"
     gridtolerance="10"
     guidetolerance="10"
     inkscape:pageopacity="0"
     inkscape:pageshadow="2"
     inkscape:window-width="1920"
     inkscape:window-height="1017"
     id="namedview4520"
     showgrid="false"
     inkscape:zoom="4"
     inkscape:cx="472.56681"
     inkscape:cy="974.72165"
     inkscape:window-x="-8"
     inkscape:window-y="-8"
     inkscape:window-maximized="1"
     inkscape:current-layer="g5048" /><g
     id="g4526"
     inkscape:groupmode="layer"
     inkscape:label="techreport"
     transform="matrix(1.3333333,0,0,-1.3333333,0,1122.52)"><g
       id="g4528"
       transform="scale(0.12)"><g
         id="g4754"
         transform="translate(-81.901397,2843.1485)"><g
           id="g4756"
           clip-path="url(#clipPath4760)"><path
             d="m 1400.33,3032.27 h 2160 v 876.668 h -2160 z"
             style="fill:#000000;fill-opacity:0;fill-rule:nonzero;stroke:none"
             id="path4762"
             inkscape:connector-curvature="0" /><path
             d="m 1873.57,3598.56 1585.8,-5.74 5,-0.02"
             style="fill:none;stroke:#0433ff;stroke-width:10;stroke-linecap:butt;stroke-linejoin:round;stroke-miterlimit:8;stroke-dasharray:none;stroke-opacity:1"
             id="path4764"
             inkscape:connector-curvature="0" /><path
             d="m 3483.67,3592.73 -45.72,26.84 v 0 c -2.91,1.7 -6.66,0.73 -8.36,-2.18 -1.71,-2.91 -0.74,-6.66 2.17,-8.36 v 0 l 27.61,-16.21 -27.73,-16.01 v 0 c -2.92,-1.68 -3.92,-5.42 -2.23,-8.35 1.68,-2.92 5.42,-3.92 8.35,-2.23 z"
             style="fill:#0433ff;fill-opacity:1;fill-rule:nonzero;stroke:none"
             id="path4766"
             inkscape:connector-curvature="0" /><path
             d="m 1876.93,3395.3 1579.11,-0.14 h 5"
             style="fill:none;stroke:#aa7942;stroke-width:10;stroke-linecap:butt;stroke-linejoin:round;stroke-miterlimit:8;stroke-dasharray:none;stroke-opacity:1"
             id="path4768"
             inkscape:connector-curvature="0" /><path
             d="m 3480.33,3395.15 -45.81,26.68 v 0 c -2.91,1.7 -6.66,0.71 -8.36,-2.21 -1.69,-2.91 -0.7,-6.66 2.21,-8.35 v 0 l 27.67,-16.11 -27.67,-16.11 v 0 c -2.92,-1.7 -3.91,-5.44 -2.21,-8.35 1.7,-2.92 5.44,-3.91 8.36,-2.21 z"
             style="fill:#aa7942;fill-opacity:1;fill-rule:nonzero;stroke:none"
             id="path4770"
             inkscape:connector-curvature="0" /><path
             d="m 1873.5,3155.3 1585.97,-0.14 h 5"
             style="fill:none;stroke:#ff9200;stroke-width:10;stroke-linecap:butt;stroke-linejoin:round;stroke-miterlimit:8;stroke-dasharray:none;stroke-opacity:1"
             id="path4772"
             inkscape:connector-curvature="0" /><path
             d="m 3483.76,3155.15 -45.81,26.68 v 0 c -2.91,1.7 -6.66,0.71 -8.36,-2.21 -1.7,-2.92 -0.71,-6.66 2.21,-8.35 v 0 l 27.67,-16.11 -27.67,-16.11 v 0 c -2.92,-1.7 -3.91,-5.44 -2.21,-8.35 1.7,-2.92 5.44,-3.91 8.36,-2.21 z"
             style="fill:#ff9200;fill-opacity:1;fill-rule:nonzero;stroke:none"
             id="path4774"
             inkscape:connector-curvature="0" /><path
             d="m 2809.57,3573.23 c 121.06,-119.3 242.11,-238.61 363.16,-357.92 l 3.56,-3.51"
             style="fill:none;stroke:#797979;stroke-width:10;stroke-linecap:butt;stroke-linejoin:round;stroke-miterlimit:8;stroke-dasharray:none;stroke-opacity:1"
             id="path4776"
             inkscape:connector-curvature="0" /><path
             d="m 3157.29,3199.64 46.78,-15.22 -15.89,46.56 z"
             style="fill:#797979;fill-opacity:1;fill-rule:nonzero;stroke:none"
             id="path4778"
             inkscape:connector-curvature="0" /><path
             d="m 3259.24,3181.53 c 14.32,-14.32 14.32,-37.54 0,-51.85 -14.32,-14.32 -37.54,-14.32 -51.86,0 -14.31,14.31 -14.31,37.53 0,51.85 14.32,14.32 37.54,14.32 51.86,0"
             style="fill:#ff9200;fill-opacity:1;fill-rule:nonzero;stroke:none"
             id="path4780"
             inkscape:connector-curvature="0" /><path
             d="m 3259.24,3181.53 c 14.32,-14.32 14.32,-37.54 0,-51.85 -14.32,-14.32 -37.54,-14.32 -51.86,0 -14.31,14.31 -14.31,37.53 0,51.85 14.32,14.32 37.54,14.32 51.86,0"
             style="fill:none;stroke:#ffffff;stroke-width:10;stroke-linecap:butt;stroke-linejoin:round;stroke-miterlimit:8;stroke-dasharray:none;stroke-opacity:1"
             id="path4782"
             inkscape:connector-curvature="0" /><g
             id="g4784"
             transform="scale(8.33333)"><text
   transform="matrix(1,0,0,-1,386.081,377.472)"
   style="font-variant:normal;font-weight:bold;font-size:4px;font-family:'Gill Sans MT';-inkscape-font-specification:GillSans-Bold;writing-mode:lr-tb;fill:#ffffff;fill-opacity:1;fill-rule:nonzero;stroke:none"
   id="text4788"><tspan
     x="0"
     y="0"
     id="tspan4786">M</tspan></text>

</g></g></g><g
         id="g4790"
         transform="translate(-81.901397,2843.1485)"><g
           id="g4792"
           clip-path="url(#clipPath4796)"><g
             id="g4806"
             transform="scale(8.33333)"><text
   transform="matrix(1,0,0,-1,390.04,386.22)"
   style="font-style:italic;font-variant:normal;font-size:9.60000038px;font-family:'Gill Sans MT';-inkscape-font-specification:GillSans-Italic;writing-mode:lr-tb;fill:#ff9200;fill-opacity:1;fill-rule:nonzero;stroke:none"
   id="text4810"><tspan
     x="0 7.1035314 11.308331 14.313131 18.266785"
     y="0"
     sodipodi:role="line"
     id="tspan4808">merge</tspan></text>

</g></g></g><g
         id="g4812"
         transform="translate(-81.901397,2843.1485)"><g
           id="g4814"
           clip-path="url(#clipPath4818)"><g
             id="g4820"
             transform="matrix(190,0,0,66.6667,2737,3188.93)" /><g
             id="g4828"
             transform="scale(8.33333)"><text
   transform="matrix(1,0,0,-1,328.249,386.22)"
   style="font-style:italic;font-variant:normal;font-size:9.60000038px;font-family:'Gill Sans MT';-inkscape-font-specification:GillSans-Italic;writing-mode:lr-tb;fill:#ff9200;fill-opacity:1;fill-rule:nonzero;stroke:none"
   id="text4832"><tspan
     x="0 7.1035314 11.308331 14.313131 18.266785"
     y="0"
     sodipodi:role="line"
     id="tspan4830">merge</tspan></text>

</g><path
             d="m 2417.26,3376.33 c 85.2,-57.7 170.4,-115.4 255.6,-173.1 l 4.15,-2.8"
             style="fill:none;stroke:#797979;stroke-width:10;stroke-linecap:butt;stroke-linejoin:round;stroke-miterlimit:8;stroke-dasharray:none;stroke-opacity:1"
             id="path4834"
             inkscape:connector-curvature="0" /><path
             d="m 2660.53,3185.02 48.77,-6.46 -24.1,42.89 z"
             style="fill:#797979;fill-opacity:1;fill-rule:nonzero;stroke:none"
             id="path4836"
             inkscape:connector-curvature="0" /><path
             d="m 2769.13,3181.53 c 14.32,-14.32 14.32,-37.54 0,-51.85 -14.32,-14.32 -37.54,-14.32 -51.86,0 -14.32,14.31 -14.32,37.53 0,51.85 14.32,14.32 37.54,14.32 51.86,0"
             style="fill:#ff9200;fill-opacity:1;fill-rule:nonzero;stroke:none"
             id="path4838"
             inkscape:connector-curvature="0" /><path
             d="m 2769.13,3181.53 c 14.32,-14.32 14.32,-37.54 0,-51.85 -14.32,-14.32 -37.54,-14.32 -51.86,0 -14.32,14.31 -14.32,37.53 0,51.85 14.32,14.32 37.54,14.32 51.86,0"
             style="fill:none;stroke:#ffffff;stroke-width:10;stroke-linecap:butt;stroke-linejoin:round;stroke-miterlimit:8;stroke-dasharray:none;stroke-opacity:1"
             id="path4840"
             inkscape:connector-curvature="0" /><g
             id="g4842"
             transform="scale(8.33333)"><text
   transform="matrix(1,0,0,-1,327.268,377.472)"
   style="font-variant:normal;font-weight:bold;font-size:4px;font-family:'Gill Sans MT';-inkscape-font-specification:GillSans-Bold;writing-mode:lr-tb;fill:#ffffff;fill-opacity:1;fill-rule:nonzero;stroke:none"
   id="text4846"><tspan
     x="0"
     y="0"
     id="tspan4844">M</tspan></text>

</g><path
             d="m 2409.37,3425.16 c 14.32,-14.32 14.32,-37.54 0,-51.86 -14.32,-14.32 -37.53,-14.32 -51.85,0 -14.32,14.32 -14.32,37.54 0,51.86 14.32,14.32 37.53,14.32 51.85,0"
             style="fill:#aa7942;fill-opacity:1;fill-rule:nonzero;stroke:none"
             id="path4848"
             inkscape:connector-curvature="0" /><path
             d="m 2409.37,3425.16 c 14.32,-14.32 14.32,-37.54 0,-51.86 -14.32,-14.32 -37.53,-14.32 -51.85,0 -14.32,14.32 -14.32,37.54 0,51.86 14.32,14.32 37.53,14.32 51.85,0"
             style="fill:none;stroke:#ffffff;stroke-width:10;stroke-linecap:butt;stroke-linejoin:round;stroke-miterlimit:8;stroke-dasharray:none;stroke-opacity:1"
             id="path4850"
             inkscape:connector-curvature="0" /><path
             d="m 2806.04,3628.2 c 14.32,-14.32 14.32,-37.54 0,-51.86 -14.32,-14.32 -37.54,-14.32 -51.86,0 -14.32,14.32 -14.32,37.54 0,51.86 14.32,14.31 37.54,14.31 51.86,0"
             style="fill:#0433ff;fill-opacity:1;fill-rule:nonzero;stroke:none"
             id="path4852"
             inkscape:connector-curvature="0" /><path
             d="m 2806.04,3628.2 c 14.32,-14.32 14.32,-37.54 0,-51.86 -14.32,-14.32 -37.54,-14.32 -51.86,0 -14.32,14.32 -14.32,37.54 0,51.86 14.32,14.31 37.54,14.31 51.86,0"
             style="fill:none;stroke:#ffffff;stroke-width:10;stroke-linecap:butt;stroke-linejoin:round;stroke-miterlimit:8;stroke-dasharray:none;stroke-opacity:1"
             id="path4854"
             inkscape:connector-curvature="0" /></g></g><g
         id="g4856"
         transform="translate(-81.901397,2843.1485)"><g
           id="g4858"
           clip-path="url(#clipPath4862)"><g
             id="g4872"
             transform="scale(8.33333)"><text
   transform="matrix(1,0,0,-1,244.917,417.038)"
   style="font-style:italic;font-variant:normal;font-size:9.60000038px;font-family:'Gill Sans MT';-inkscape-font-specification:GillSans-Italic;writing-mode:lr-tb;fill:#aa7942;fill-opacity:1;fill-rule:nonzero;stroke:none"
   id="text4876"><tspan
     x="0 4.099669 6.9028687"
     y="0"
     sodipodi:role="line"
     id="tspan4874">g(x</tspan></text>

</g></g></g><g
         id="g4878"
         transform="translate(-81.901397,2843.1485)"><g
           id="g4880"
           clip-path="url(#clipPath4884)"><g
             id="g4886"
             transform="matrix(33.3333,0,0,46.6667,2130.33,3462.27)" /><g
             id="g4894"
             transform="scale(8.33333)"><text
   transform="matrix(1,0,0,-1,255.914,416.303)"
   style="font-style:italic;font-variant:normal;font-size:6.4000001px;font-family:'Gill Sans MT';-inkscape-font-specification:GillSans-Italic;writing-mode:lr-tb;fill:#aa7942;fill-opacity:1;fill-rule:nonzero;stroke:none"
   id="text4898"><tspan
     x="0"
     y="0"
     id="tspan4896">2</tspan></text>

</g></g></g><g
         id="g4900"
         transform="translate(-81.901397,2843.1485)"><g
           id="g4902"
           clip-path="url(#clipPath4906)"><g
             id="g4908"
             transform="matrix(33.3333,0,0,83.3333,2153.67,3445.6)" /><g
             id="g4916"
             transform="scale(8.33333)"><text
   transform="matrix(1,0,0,-1,259.248,417.038)"
   style="font-style:italic;font-variant:normal;font-size:9.60000038px;font-family:'Gill Sans MT';-inkscape-font-specification:GillSans-Italic;writing-mode:lr-tb;fill:#aa7942;fill-opacity:1;fill-rule:nonzero;stroke:none"
   id="text4920"><tspan
     x="0"
     y="0"
     id="tspan4918">)</tspan></text>

</g><path
             d="m 2119.37,3425.16 c 14.32,-14.32 14.32,-37.54 0,-51.86 -14.32,-14.32 -37.53,-14.32 -51.85,0 -14.32,14.32 -14.32,37.54 0,51.86 14.32,14.32 37.53,14.32 51.85,0"
             style="fill:#aa7942;fill-opacity:1;fill-rule:nonzero;stroke:none"
             id="path4922"
             inkscape:connector-curvature="0" /><path
             d="m 2119.37,3425.16 c 14.32,-14.32 14.32,-37.54 0,-51.86 -14.32,-14.32 -37.53,-14.32 -51.85,0 -14.32,14.32 -14.32,37.54 0,51.86 14.32,14.32 37.53,14.32 51.85,0"
             style="fill:none;stroke:#ffffff;stroke-width:10;stroke-linecap:butt;stroke-linejoin:round;stroke-miterlimit:8;stroke-dasharray:none;stroke-opacity:1"
             id="path4924"
             inkscape:connector-curvature="0" /><g
             id="g4926"
             transform="scale(8.33333)"><text
   transform="matrix(1,0,0,-1,249.99,406.708)"
   style="font-variant:normal;font-weight:bold;font-size:4px;font-family:'Gill Sans MT';-inkscape-font-specification:GillSans-Bold;writing-mode:lr-tb;fill:#ffffff;fill-opacity:1;fill-rule:nonzero;stroke:none"
   id="text4930"><tspan
     x="0"
     y="0"
     id="tspan4928">S</tspan></text>

</g><path
             d="m 2119.37,3628.2 c 14.32,-14.32 14.32,-37.54 0,-51.86 -14.32,-14.32 -37.53,-14.32 -51.85,0 -14.32,14.32 -14.32,37.54 0,51.86 14.32,14.31 37.53,14.31 51.85,0"
             style="fill:#0433ff;fill-opacity:1;fill-rule:nonzero;stroke:none"
             id="path4932"
             inkscape:connector-curvature="0" /><path
             d="m 2119.37,3628.2 c 14.32,-14.32 14.32,-37.54 0,-51.86 -14.32,-14.32 -37.53,-14.32 -51.85,0 -14.32,14.32 -14.32,37.54 0,51.86 14.32,14.31 37.53,14.31 51.85,0"
             style="fill:none;stroke:#ffffff;stroke-width:6.66666985;stroke-linecap:butt;stroke-linejoin:round;stroke-miterlimit:8;stroke-dasharray:none;stroke-opacity:1"
             id="path4934"
             inkscape:connector-curvature="0" /><g
             id="g4936"
             transform="scale(8.33333)"><text
   transform="matrix(1,0,0,-1,249.99,431.072)"
   style="font-variant:normal;font-weight:bold;font-size:4px;font-family:'Gill Sans MT';-inkscape-font-specification:GillSans-Bold;writing-mode:lr-tb;fill:#ffffff;fill-opacity:1;fill-rule:nonzero;stroke:none"
   id="text4940"><tspan
     x="0"
     y="0"
     id="tspan4938">S</tspan></text>

</g><g
             id="g4942"
             transform="scale(8.33333)"><text
   transform="matrix(1,0,0,-1,240.845,454.872)"
   style="font-variant:normal;font-weight:normal;font-size:9.60000038px;font-family:'Gill Sans MT';-inkscape-font-specification:GillSans;writing-mode:lr-tb;fill:#0433ff;fill-opacity:1;fill-rule:nonzero;stroke:none"
   id="text4946"><tspan
     x="0 3.6964688 8.9961376 13.796138 17.358646 21.563446"
     y="0"
     sodipodi:role="line"
     id="tspan4944">source</tspan></text>

<text
   transform="matrix(1,0,0,-1,246.10344,445.67184)"
   style="font-style:italic;font-variant:normal;font-size:9.60000038px;font-family:'Gill Sans MT';-inkscape-font-specification:GillSans-Italic;writing-mode:lr-tb;fill:#0433ff;fill-opacity:1;fill-rule:nonzero;stroke:none"
   id="text4950"><tspan
     x="0 2.6015999 5.4047999"
     y="0"
     sodipodi:role="line"
     id="tspan4948">f(x</tspan></text>

<text
   transform="matrix(1,0,0,-1,255.605,444.936)"
   style="font-style:italic;font-variant:normal;font-size:6.4000001px;font-family:'Gill Sans MT';-inkscape-font-specification:GillSans-Italic;writing-mode:lr-tb;fill:#0433ff;fill-opacity:1;fill-rule:nonzero;stroke:none"
   id="text4954"><tspan
     x="0"
     y="0"
     id="tspan4952">1</tspan></text>

<text
   transform="matrix(1,0,0,-1,258.939,445.672)"
   style="font-style:italic;font-variant:normal;font-size:9.60000038px;font-family:'Gill Sans MT';-inkscape-font-specification:GillSans-Italic;writing-mode:lr-tb;fill:#0433ff;fill-opacity:1;fill-rule:nonzero;stroke:none"
   id="text4958"><tspan
     x="0"
     y="0"
     id="tspan4956">)</tspan></text>

</g><path
             d="m 1758.14,3602.85 c 65.15,-128.21 65.15,-336.07 0,-464.28 -65.14,-128.21 -170.76,-128.21 -235.91,0 -65.14,128.21 -65.14,336.07 0,464.28 65.15,128.21 170.77,128.21 235.91,0"
             style="fill:none;stroke:#000000;stroke-width:6.66666985;stroke-linecap:butt;stroke-linejoin:round;stroke-miterlimit:8;stroke-dasharray:60, 20;stroke-dashoffset:0;stroke-opacity:1"
             id="path4960"
             inkscape:connector-curvature="0" /><path
             d="m 1698.54,3215.72 c 33.21,-31.24 33.21,-81.89 0,-113.13 -33.21,-31.25 -87.06,-31.25 -120.26,0 -33.21,31.24 -33.21,81.89 0,113.13 33.2,31.24 87.05,31.24 120.26,0"
             style="fill:none;stroke:#ff9200;stroke-width:6.66666985;stroke-linecap:butt;stroke-linejoin:round;stroke-miterlimit:8;stroke-dasharray:none;stroke-opacity:1"
             id="path4962"
             inkscape:connector-curvature="0" /><g
             id="g4964"
             transform="scale(8.33333)"><text
   transform="matrix(1,0,0,-1,191.964,375.838)"
   style="font-style:italic;font-variant:normal;font-size:9.60000038px;font-family:'Gill Sans MT';-inkscape-font-specification:GillSans-Italic;writing-mode:lr-tb;fill:#ff9200;fill-opacity:1;fill-rule:nonzero;stroke:none"
   id="text4968"><tspan
     x="0"
     y="0"
     id="tspan4966">x</tspan></text>

<text
   transform="matrix(1,0,0,-1,196.061,375.102)"
   style="font-style:italic;font-variant:normal;font-size:6.4000001px;font-family:'Gill Sans MT';-inkscape-font-specification:GillSans-Italic;writing-mode:lr-tb;fill:#ff9200;fill-opacity:1;fill-rule:nonzero;stroke:none"
   id="text4972"><tspan
     x="0"
     y="0"
     id="tspan4970">3</tspan></text>

</g><path
             d="m 1698.54,3642.39 c 33.21,-31.24 33.21,-81.89 0,-113.14 -33.21,-31.24 -87.06,-31.24 -120.26,0 -33.21,31.25 -33.21,81.9 0,113.14 33.2,31.24 87.05,31.24 120.26,0"
             style="fill:none;stroke:#0433ff;stroke-width:6.66666985;stroke-linecap:butt;stroke-linejoin:round;stroke-miterlimit:8;stroke-dasharray:none;stroke-opacity:1"
             id="path4974"
             inkscape:connector-curvature="0" /></g></g><g
         id="g4976"
         transform="translate(-81.901397,2843.1485)"><g
           id="g4978"
           clip-path="url(#clipPath4982)"><g
             id="g4992"
             transform="scale(8.33333)"><text
   transform="matrix(1,0,0,-1,191.964,427.038)"
   style="font-style:italic;font-variant:normal;font-size:9.60000038px;font-family:'Gill Sans MT';-inkscape-font-specification:GillSans-Italic;writing-mode:lr-tb;fill:#003649;fill-opacity:1;fill-rule:nonzero;stroke:none"
   id="text4996"><tspan
     x="0"
     y="0"
     id="tspan4994">x</tspan></text>

</g></g></g><g
         id="g4998"
         transform="translate(-81.901397,2843.1485)"><g
           id="g5000"
           clip-path="url(#clipPath5004)"><g
             id="g5014"
             transform="scale(8.33333)"><text
   transform="matrix(1,0,0,-1,196.061,426.302)"
   style="font-style:italic;font-variant:normal;font-size:6.4000001px;font-family:'Gill Sans MT';-inkscape-font-specification:GillSans-Italic;writing-mode:lr-tb;fill:#003649;fill-opacity:1;fill-rule:nonzero;stroke:none"
   id="text5018"><tspan
     x="0"
     y="0"
     id="tspan5016">1</tspan></text>

</g><path
             d="m 1698.54,3425.5 c 33.21,-31.24 33.21,-81.89 0,-113.14 -33.21,-31.24 -87.06,-31.24 -120.26,0 -33.21,31.25 -33.21,81.9 0,113.14 33.2,31.24 87.05,31.24 120.26,0"
             style="fill:none;stroke:#aa7942;stroke-width:6.66666985;stroke-linecap:butt;stroke-linejoin:round;stroke-miterlimit:8;stroke-dasharray:none;stroke-opacity:1"
             id="path5020"
             inkscape:connector-curvature="0" /><g
             id="g5022"
             transform="scale(8.33333)"><text
   transform="matrix(1,0,0,-1,191.964,400.784)"
   style="font-style:italic;font-variant:normal;font-size:9.60000038px;font-family:'Gill Sans MT';-inkscape-font-specification:GillSans-Italic;writing-mode:lr-tb;fill:#aa7942;fill-opacity:1;fill-rule:nonzero;stroke:none"
   id="text5026"><tspan
     x="0"
     y="0"
     id="tspan5024">x</tspan></text>

</g><g
             id="g5028"
             transform="scale(8.33333)"><text
   transform="matrix(1,0,0,-1,196.061,400.048)"
   style="font-style:italic;font-variant:normal;font-size:6.4000001px;font-family:'Gill Sans MT';-inkscape-font-specification:GillSans-Italic;writing-mode:lr-tb;fill:#aa7942;fill-opacity:1;fill-rule:nonzero;stroke:none"
   id="text5032"><tspan
     x="0"
     y="0"
     id="tspan5030">2</tspan></text>

</g><g
             id="g5034"
             transform="scale(8.33333)"><text
   transform="matrix(1,0,0,-1,173.64,436.638)"
   style="font-style:italic;font-variant:normal;font-size:9.60000038px;font-family:'Gill Sans MT';-inkscape-font-specification:GillSans-Italic;writing-mode:lr-tb;fill:#000000;fill-opacity:1;fill-rule:nonzero;stroke:none"
   id="text5038"><tspan
     x="0"
     y="0"
     id="tspan5036">x</tspan></text>

</g></g></g><g
         id="g5040"
         transform="translate(-81.901397,2843.1485)"><g
           id="g5042"
           clip-path="url(#clipPath5046)"><g
             id="g5048"
             transform="matrix(193.333,0,0,66.6667,3180.33,3625.6)" /><g
             id="g5056"
             transform="scale(8.33333)"><text
   transform="matrix(1,0,0,-1,381.804,438.62)"
   style="font-style:italic;font-variant:normal;font-size:9.60000038px;font-family:'Gill Sans MT';-inkscape-font-specification:GillSans-Italic;writing-mode:lr-tb;fill:#0433ff;fill-opacity:1;fill-rule:nonzero;stroke:none"
   id="text5060"><tspan
     x="0 7.1035314 11.308331 14.313131 18.266785"
     y="0"
     sodipodi:role="line"
     id="tspan5058">merge</tspan></text>

</g><path
             d="m 3173.75,3568.12 -4.77,-1.51 c -166.46,-52.73 -332.91,-105.47 -499.37,-158.2"
             style="fill:none;stroke:#797979;stroke-width:10;stroke-linecap:butt;stroke-linejoin:round;stroke-miterlimit:8;stroke-dasharray:none;stroke-opacity:1"
             id="path5062"
             inkscape:connector-curvature="0" /><path
             d="m 3175.63,3545.64 35.3,34.25 -48.59,7.69 z"
             style="fill:#797979;fill-opacity:1;fill-rule:nonzero;stroke:none"
             id="path5064"
             inkscape:connector-curvature="0" /><path
             d="m 3275.91,3618.2 c 14.32,-14.32 14.32,-37.54 0,-51.86 -14.32,-14.32 -37.54,-14.32 -51.86,0 -14.32,14.32 -14.32,37.54 0,51.86 14.32,14.32 37.54,14.32 51.86,0"
             style="fill:#0433ff;fill-opacity:1;fill-rule:nonzero;stroke:none"
             id="path5066"
             inkscape:connector-curvature="0" /><path
             d="m 3275.91,3618.2 c 14.32,-14.32 14.32,-37.54 0,-51.86 -14.32,-14.32 -37.54,-14.32 -51.86,0 -14.32,14.32 -14.32,37.54 0,51.86 14.32,14.32 37.54,14.32 51.86,0"
             style="fill:none;stroke:#ffffff;stroke-width:10;stroke-linecap:butt;stroke-linejoin:round;stroke-miterlimit:8;stroke-dasharray:none;stroke-opacity:1"
             id="path5068"
             inkscape:connector-curvature="0" /><g
             id="g5070"
             transform="scale(8.33333)"><text
   transform="matrix(1,0,0,-1,388.081,429.872)"
   style="font-variant:normal;font-weight:bold;font-size:4px;font-family:'Gill Sans MT';-inkscape-font-specification:GillSans-Bold;writing-mode:lr-tb;fill:#ffffff;fill-opacity:1;fill-rule:nonzero;stroke:none"
   id="text5074"><tspan
     x="0"
     y="0"
     id="tspan5072">M</tspan></text>

</g><path
             d="m 2656.04,3421.82 c 14.32,-14.32 14.32,-37.53 0,-51.85 -14.32,-14.32 -37.54,-14.32 -51.86,0 -14.32,14.32 -14.32,37.53 0,51.85 14.32,14.32 37.54,14.32 51.86,0"
             style="fill:#aa7942;fill-opacity:1;fill-rule:nonzero;stroke:none"
             id="path5076"
             inkscape:connector-curvature="0" /><path
             d="m 2656.04,3421.82 c 14.32,-14.32 14.32,-37.53 0,-51.85 -14.32,-14.32 -37.54,-14.32 -51.86,0 -14.32,14.32 -14.32,37.53 0,51.85 14.32,14.32 37.54,14.32 51.86,0"
             style="fill:none;stroke:#ffffff;stroke-width:10;stroke-linecap:butt;stroke-linejoin:round;stroke-miterlimit:8;stroke-dasharray:none;stroke-opacity:1"
             id="path5078"
             inkscape:connector-curvature="0" /></g></g></g></g></svg>